<?xml version="1.0" encoding="UTF-8"?>
<!DOCTYPE svg PUBLIC "-//W3C//DTD SVG 1.1//EN" "http://www.w3.org/Graphics/SVG/1.1/DTD/svg11.dtd">
<svg xmlns="http://www.w3.org/2000/svg" version="1.1" width="1082px" height="211px" style="shape-rendering:geometricPrecision; text-rendering:geometricPrecision; image-rendering:optimizeQuality; fill-rule:evenodd; clip-rule:evenodd" xmlns:xlink="http://www.w3.org/1999/xlink">
<g><path style="opacity:0.994" fill="#088a8c" d="M 807.5,1.5 C 837.921,-1.30335 864.421,7.36331 887,27.5C 886.176,30.8008 884.51,33.8008 882,36.5C 875.309,44.52 868.643,52.52 862,60.5C 853.469,55.6506 844.635,51.484 835.5,48C 826.553,46.4873 817.553,46.154 808.5,47C 798.261,50.4023 795.428,56.9023 800,66.5C 801.41,67.7875 802.91,68.9542 804.5,70C 821.833,77 839.167,84 856.5,91C 889.473,106.574 900.306,131.741 889,166.5C 880.543,183.994 867.043,195.828 848.5,202C 815.695,211.281 784.362,207.614 754.5,191C 748.262,187.385 742.596,183.051 737.5,178C 747.339,166.162 757.172,154.328 767,142.5C 786.812,159.078 809.312,164.578 834.5,159C 842.607,151.861 842.274,144.861 833.5,138C 816.167,130.667 798.833,123.333 781.5,116C 747.725,98.9566 737.558,72.7899 751,37.5C 764.043,16.5539 782.876,4.55394 807.5,1.5 Z"/></g>
<g><path style="opacity:0.995" fill="#6b41a5" d="M 988.5,1.5 C 1019.12,-1.12488 1045.96,7.54178 1069,27.5C 1068.96,29.2785 1068.29,30.9452 1067,32.5C 1059.39,42.0584 1051.56,51.3917 1043.5,60.5C 1033.88,54.3554 1023.54,49.8554 1012.5,47C 1005.17,46.3333 997.833,46.3333 990.5,47C 980.796,49.9095 977.629,56.0761 981,65.5C 982.558,67.3589 984.391,68.8589 986.5,70C 1004.5,77.3333 1022.5,84.6667 1040.5,92C 1072.77,108.73 1082.61,134.23 1070,168.5C 1058.83,188.314 1042,200.481 1019.5,205C 989.382,210.258 961.049,205.258 934.5,190C 929.192,186.355 924.192,182.355 919.5,178C 929.209,166.092 939.043,154.259 949,142.5C 967.804,158.099 989.304,163.932 1013.5,160C 1021.55,157.058 1024.05,151.558 1021,143.5C 1018.8,140.96 1016.3,138.793 1013.5,137C 997.5,130.333 981.5,123.667 965.5,117C 932.434,101.701 920.934,76.534 931,41.5C 938.685,24.8166 951.185,13.3166 968.5,7C 975.208,4.82607 981.875,2.99274 988.5,1.5 Z"/></g>
<g><path style="opacity:1" fill="#0082ce" d="M 458.5,1.5 C 480.719,-1.35454 501.053,3.47879 519.5,16C 524.758,19.127 529.425,22.9603 533.5,27.5C 523.791,38.0385 514.291,48.7051 505,59.5C 498.49,53.6802 490.99,49.5135 482.5,47C 459.142,43.5934 442.975,52.7601 434,74.5C 425.379,99.6228 427.712,123.623 441,146.5C 454.432,160.9 470.598,165.067 489.5,159C 496.224,155.601 502.39,151.435 508,146.5C 516.977,156.146 525.977,165.812 535,175.5C 534.226,179.021 532.392,182.187 529.5,185C 504.485,205.565 476.152,211.898 444.5,204C 404.824,192.181 382.324,165.681 377,124.5C 372.113,92.926 378.446,63.926 396,37.5C 412.464,17.853 433.298,5.85301 458.5,1.5 Z"/></g>
<g><path style="opacity:0.977" fill="#fe9239" d="M 560.5,4.5 C 591.527,4.0717 622.527,4.5717 653.5,6C 700.136,12.9962 719.303,39.8296 711,86.5C 706.473,104.068 696.307,117.235 680.5,126C 695.511,151.528 709.844,177.361 723.5,203.5C 704.155,203.833 684.822,203.5 665.5,202.5C 653.927,181.022 642.593,159.356 631.5,137.5C 625.202,136.504 618.868,136.17 612.5,136.5C 612.5,158.833 612.5,181.167 612.5,203.5C 595.167,203.5 577.833,203.5 560.5,203.5C 560.5,137.167 560.5,70.8333 560.5,4.5 Z M 612.5,46.5 C 621.839,46.3335 631.173,46.5002 640.5,47C 659.339,50.1516 665.839,60.985 660,79.5C 655.861,88.6121 648.695,93.4454 638.5,94C 629.84,94.4998 621.173,94.6664 612.5,94.5C 612.5,78.5 612.5,62.5 612.5,46.5 Z"/></g>
<g><path style="opacity:0.978" fill="#fe2c10" d="M 196.5,4.5 C 213.833,4.5 231.167,4.5 248.5,4.5C 248.5,29.1667 248.5,53.8333 248.5,78.5C 263.17,78.6666 277.837,78.4999 292.5,78C 291.506,53.5747 291.172,29.0747 291.5,4.5C 308.833,4.5 326.167,4.5 343.5,4.5C 343.5,70.8333 343.5,137.167 343.5,203.5C 326.167,203.5 308.833,203.5 291.5,203.5C 291.5,177.167 291.5,150.833 291.5,124.5C 277.167,124.5 262.833,124.5 248.5,124.5C 248.5,150.833 248.5,177.167 248.5,203.5C 231.167,203.5 213.833,203.5 196.5,203.5C 196.5,137.167 196.5,70.8333 196.5,4.5 Z"/></g>
<g><path style="opacity:1" fill="#18b249" d="M 5.5,4.5 C 60.8333,4.5 116.167,4.5 171.5,4.5C 171.5,19.1667 171.5,33.8333 171.5,48.5C 152.5,48.5 133.5,48.5 114.5,48.5C 114.5,100.167 114.5,151.833 114.5,203.5C 97.1667,203.5 79.8333,203.5 62.5,203.5C 62.5,151.833 62.5,100.167 62.5,48.5C 43.5,48.5 24.5,48.5 5.5,48.5C 5.5,33.8333 5.5,19.1667 5.5,4.5 Z"/></g>
</svg>
